<?xml version="1.0" encoding="utf-8"?>
<!-- Generator: Adobe Illustrator 19.1.0, SVG Export Plug-In . SVG Version: 6.00 Build 0)  -->
<svg version="1.1" id="Layer_1" xmlns="http://www.w3.org/2000/svg" xmlns:xlink="http://www.w3.org/1999/xlink" x="0px" y="0px"
	 viewBox="0 0 128 128" style="enable-background:new 0 0 128 128;" xml:space="preserve">
<style type="text/css">
	.st0{fill:#FFFFFF;stroke:#1A1A1A;stroke-miterlimit:10;}
	.st1{fill:url(#SVGID_1_);stroke:#1A1A1A;stroke-miterlimit:10;}
	.st2{fill:#9DE20D;}
</style>
<path class="st0" d="M108.7,120.5H19.1c-6.6,0-12-5.4-12-12V18.9c0-6.6,5.4-12,12-12h89.6c6.6,0,12,5.4,12,12v89.6
	C120.7,115.1,115.3,120.5,108.7,120.5z"/>
<linearGradient id="SVGID_1_" gradientUnits="userSpaceOnUse" x1="63.9261" y1="115.1293" x2="63.9261" y2="12.3588">
	<stop  offset="0" style="stop-color:#1A1A1A"/>
	<stop  offset="1" style="stop-color:#333333"/>
</linearGradient>
<path class="st1" d="M109.2,115.1H18.7c-3.4,0-6.1-2.8-6.1-6.1V18.5c0-3.4,2.8-6.1,6.1-6.1h90.5c3.4,0,6.1,2.8,6.1,6.1V109
	C115.3,112.4,112.6,115.1,109.2,115.1z"/>
<g>
	<path class="st2" d="M20.5,88.6c1.7,0,3.4,0,5.3,0c0-3.6,0-7,0-10.8c2,0,3.7,0,5.5,0l0,0c0,1.8,0,3.5,0,5.4c2.1,0,3.7,0,5.4,0l0,0
		c0,3.5,0,6.9,0,10.7c-1.7,0-3.4,0-5.3,0c0,1.9,0,3.5,0,5.5c-3.8,0-7.3,0-10.9,0C20.5,95.8,20.5,92.2,20.5,88.6z"/>
	<path class="st2" d="M31.3,29.3c0-1.8,0-3.6,0-5.4c3.6,0,7.2,0,10.8,0c0,3.6,0,7.2,0,10.8c0,0,0,0,0,0c-1.8,0-3.6,0-5.4,0l0,0
		c0-1.8,0-3.5,0-5.4C34.6,29.2,32.9,29.2,31.3,29.3L31.3,29.3z"/>
	<path class="st2" d="M31.3,77.8c0-10.7,0-21.3,0-32.3c1.7,0,3.4,0,5.4,0c0-2,0-3.8,0-5.5l0,0c1.8,0,3.5,0,5.4,0c0-2.1,0-3.7,0-5.4
		c0,0,0,0,0,0c1.7,0,3.4,0,5.4,0c0-1.8,0-3.5,0-5.3c10.9,0,21.5,0,32.3,0c0,1.7,0,3.3,0,5.1c1.8,0,3.5,0,5.4,0c0,1.9,0,3.6,0,5.5
		c1.9,0,3.6,0,5.4,0c0,1.9,0,3.4,0,5.3c1.8,0,3.5,0,5.4,0c0,9.2,0,18.2,0,27.1l0,0c-1.8,0-3.5,0-5.4,0c0,3.9,0,7.3,0,10.8l0,0
		c-1.7,0-3.4,0-5.4,0c0,1.8,0,3.5,0,5.3c-1.9,0-3.4,0-5.3,0c0,1.8,0,3.5,0,5.3c-10.9,0-21.5,0-32.4,0c0-1.6,0-3.3,0-5.1
		c-1.9,0-3.4,0-5.3,0c0-1.8,0-3.5,0-5.5c-2,0-3.8,0-5.5,0c0,0,0,0,0,0c0-1.8,0-3.5,0-5.4C34.6,77.8,32.9,77.8,31.3,77.8L31.3,77.8z
		 M52.9,72.4c0,3.6,0,7.1,0,10.9c2,0,3.6,0,5.5,0c0,1.9,0,3.5,0,5.1c3.6,0,7.1,0,10.7,0c0-3.7,0-7.1,0-10.6c1.8,0,3.5,0,5.5,0
		c0,2,0,3.6,0,5.2c1.9,0,3.5,0,5.3,0c0-3.7,0-7.1,0-10.6c1.8,0,3.5,0,5.5,0c0-2,0-3.6,0-5.5c1.9,0,3.5,0,5.1,0c0-3.6,0-7.1,0-10.7
		c-3.7,0-7.1,0-10.6,0c0-1.8,0-3.5,0-5.5c2,0,3.7,0,5.3,0c0-1.9,0-3.4,0-5.3c-1.8,0-3.4,0-5.3,0c0-1.9,0-3.6,0-5.3c-2,0-3.7,0-5.3,0
		c0-1.8,0-3.5,0-5.2c-5.6,0-10.8,0-16.3,0c0,1.8,0,3.4,0,5.2c-3.6,0-7.1,0-10.7,0c0,2,0,3.7,0,5.4c-1.8,0-3.5,0-5.5,0
		c0,3.8,0,7.2,0,10.9c-1.9,0-3.5,0-5.1,0c0,3.6,0,7.1,0,10.7c1.9,0,3.6,0,5.2,0c0,3.5,0,7.1,0,10.6c1.9,0,3.6,0,5.5,0
		c0-1.8,0-3.5,0-5.2C49.5,72.4,51.2,72.4,52.9,72.4z"/>
	<path class="st2" d="M95.9,72.4c3.5,0,7,0,10.6,0c0,5.4,0,10.6,0,16.1c-1.7,0-3.3,0-5.1,0c0,1.9,0,3.4,0,5.2c-3.6,0-7.1,0-10.8,0
		c0-3.5,0-7.1,0-10.6c0,0,0,0,0,0c1.8,0,3.5,0,5.4,0C96,79.3,96,75.9,95.9,72.4L95.9,72.4z"/>
	<path class="st2" d="M36.7,40c-3.5,0-7,0-10.6,0c0-3.5,0-7,0-10.7c1.7,0,3.5,0,5.2,0c0,0,0,0,0,0c0,1.8,0,3.5,0,5.4
		c2.1,0,3.7,0,5.4,0l0,0C36.6,36.4,36.6,38.3,36.7,40L36.7,40z"/>
	<path class="st2" d="M63.6,50.8c0,1.7,0,3.4,0,5.3c1.8,0,3.4,0,5.4,0c0,2,0,3.8,0,5.5c-3.6,0-7.2,0-10.8,0c0-1.7,0-3.4,0-5.3
		c-1.8,0-3.4,0-5.4,0c0-2,0-3.8,0-5.5C56.4,50.8,60,50.8,63.6,50.8z"/>
	<path class="st2" d="M69,45.4c0,1.7,0,3.4,0,5.4c-1.9,0-3.7,0-5.4,0c0-1.7,0-3.4,0-5.4C65.5,45.4,67.3,45.4,69,45.4z"/>
	<path class="st2" d="M52.9,50.8c-1.7,0-3.4,0-5.4,0c0-1.9,0-3.7,0-5.4c1.7,0,3.4,0,5.4,0C52.9,47.3,52.9,49.1,52.9,50.8z"/>
	<path class="st2" d="M74.4,40c0,1.7,0,3.4,0,5.4c-1.9,0-3.7,0-5.4,0c0-1.7,0-3.4,0-5.4C70.9,40,72.7,40,74.4,40z"/>
	<path class="st2" d="M52.8,72.4c0-1.7,0-3.4,0-5.4c-3.7,0-7.2,0-10.8,0c0-1.7,0-3.4,0-5.4c5.5,0,10.9,0,16.2,0c0,3.6,0,7.2,0,10.8
		C56.4,72.4,54.6,72.4,52.8,72.4z"/>
	<path class="st2" d="M69,77.8c-3.5,0-7,0-10.8,0c0-1.9,0-3.7,0-5.4c3.5,0,7,0,10.8,0C69,74.3,69,76,69,77.8z"/>
	<path class="st2" d="M74.4,67c1.7,0,3.4,0,5.4,0c0,1.9,0,3.7,0,5.4c-1.7,0-3.4,0-5.4,0C74.4,70.5,74.4,68.7,74.4,67z"/>
	<path class="st2" d="M74.4,61.6c0,1.8,0,3.6,0,5.4c-1.7,0-3.4,0-5.4,0c0-1.9,0-3.7,0-5.4C70.8,61.6,72.6,61.6,74.4,61.6z"/>
	<path class="st2" d="M79.8,56.2c0,1.7,0,3.4,0,5.4c-1.9,0-3.7,0-5.4,0c0-1.7,0-3.4,0-5.4C76.3,56.2,78.1,56.2,79.8,56.2z"/>
</g>
</svg>
